HIERARCHY
ROOT Hips
{
	OFFSET 0.00000 0.00000 0.00000
	CHANNELS 6 Xposition Yposition Zposition Zrotation Yrotation Xrotation 
	JOINT LHipJoint
	{
		OFFSET 0 0 0
		CHANNELS 3 Zrotation Yrotation Xrotation
		JOINT LeftHip
		{
			OFFSET 1.62329 -1.80800 0.67318
			CHANNELS 3 Zrotation Yrotation Xrotation
			JOINT LeftKnee
			{
				OFFSET 2.57139 -7.06484 0.00000
				CHANNELS 3 Zrotation Yrotation Xrotation
				JOINT LeftAnkle
				{
					OFFSET 2.52017 -6.92413 0.00000
					CHANNELS 3 Zrotation Yrotation Xrotation
					JOINT LeftToe
					{
						OFFSET 0.23295 -0.64001 2.10214
						CHANNELS 3 Zrotation Yrotation Xrotation
						End Site
						{
							OFFSET 0.00000 -0.00000 1.10139
						}
					}
				}
			}
		}
	}
	JOINT RHipJoint
	{
		OFFSET 0 0 0
		CHANNELS 3 Zrotation Yrotation Xrotation
		JOINT RightHip
		{
			OFFSET -1.48061 -1.80800 0.67318
			CHANNELS 3 Zrotation Yrotation Xrotation
			JOINT RightKnee
			{
				OFFSET -2.63258 -7.23296 0.00000
				CHANNELS 3 Zrotation Yrotation Xrotation
				JOINT RightAnkle
				{
					OFFSET -2.54779 -7.00000 0.00000
					CHANNELS 3 Zrotation Yrotation Xrotation
					JOINT RightToe
					{
						OFFSET -0.23067 -0.63376 2.12161
						CHANNELS 3 Zrotation Yrotation Xrotation
						End Site
						{
							OFFSET -0.00000 -0.00000 1.11000
						}
					}
				}
			}
		}
	}
	JOINT lowerback
	{
		OFFSET 0 0 0
		CHANNELS 3 Zrotation Yrotation Xrotation
		JOINT Chest
		{
			OFFSET -0.02108 2.07573 -0.16981
			CHANNELS 3 Zrotation Yrotation Xrotation
			JOINT Chest2
			{
				OFFSET 0.05070 2.08439 -0.03141
				CHANNELS 3 Zrotation Yrotation Xrotation
				JOINT lowerneck
				{
					OFFSET 0 0 0
					CHANNELS 3 Zrotation Yrotation Xrotation
					JOINT Neck
					{
						OFFSET -0.10731 1.60408 0.31370
						CHANNELS 3 Zrotation Yrotation Xrotation
						JOINT Head
						{
							OFFSET 0.08411 1.65679 -0.30822
							CHANNELS 3 Zrotation Yrotation Xrotation
							End Site
							{
								OFFSET 0.03911 1.69149 -0.14146
							}
						}
					}
				}
				JOINT LeftCollar
				{
					OFFSET 0 0 0
					CHANNELS 3 Zrotation Yrotation Xrotation
					JOINT LeftShoulder
					{
						OFFSET 3.52315 0.73219 -0.54694
CHANNELS 3 Zrotation Xrotation Yrotation
						JOINT LeftElbow
						{
OFFSET 0 -5.324620 -0.000000
CHANNELS 3 Zrotation Xrotation Yrotation
							JOINT LeftWrist
							{
OFFSET 0 -3.484020 -0.000000
CHANNELS 3 Zrotation Xrotation Yrotation
								JOINT lhand
								{
									OFFSET 0 0 0
CHANNELS 3 Zrotation Xrotation Yrotation
									JOINT LFingers
									{
OFFSET 0 -0.572480 -0.000000
CHANNELS 3 Zrotation Xrotation Yrotation
										End Site
										{
OFFSET 0 -0.461540 -0.000000
										}
									}
								}
								JOINT LThumb
								{
OFFSET 0 0.000000 0.000000
CHANNELS 3 Zrotation Xrotation Yrotation
									End Site
									{
OFFSET 0 -0.468590 0.468590
									}
								}
							}
						}
					}
				}
				JOINT RightCollar
				{
					OFFSET 0 0 0
					CHANNELS 3 Zrotation Yrotation Xrotation
					JOINT RightShoulder
					{
						OFFSET -3.41766 0.93592 -0.10019
CHANNELS 3 Zrotation Xrotation Yrotation
						JOINT RightElbow
						{
OFFSET 0 -5.335890 -0.000000
CHANNELS 3 Zrotation Xrotation Yrotation
							JOINT RightWrist
							{
OFFSET 0 -3.641340 -0.000000
CHANNELS 3 Zrotation Xrotation Yrotation
								JOINT rhand
								{
									OFFSET 0 0 0
CHANNELS 3 Zrotation Xrotation Yrotation
									JOINT RFingers
									{
OFFSET 0 -0.734810 -0.000000
CHANNELS 3 Zrotation Xrotation Yrotation
										End Site
										{
OFFSET 0 -0.592420 -0.000000
										}
									}
								}
								JOINT RThumb
								{
OFFSET 0 0.000000 0.000000
CHANNELS 3 Zrotation Xrotation Yrotation
									End Site
									{
OFFSET 0 -0.601470 0.601470
									}
								}
							}
						}
					}
				}
			}
		}
	}
}
MOTION
Frames: 9
Frame Time: .0083333
-9.4289 17.6489 -2.4238 2.2428 47.7814 7.9383 0.0000 0.0000 0.0000 -27.2667 0.8515 -15.0111 2.2338 9.3370 26.8551 0.9477 -2.0013 -17.8331 0.1160 -2.1954 -6.0461 0.0000 0.0000 0.0000 8.0543 9.5826 -28.3328 -5.2660 -13.6772 41.9594 -0.4298 -2.0299 -13.2904 -0.0007 -0.1740 0.4782 -6.2447 -2.0191 3.9314 1.9407 -2.9091 0.9737 5.6431 -1.4540 -0.7837 -6.6452 4.1612 -12.6484 2.8186 8.5669 41.8241 4.0197 3.1780 16.9161 0.0000 -0.0000 0.0000 0.2356 -3.8576 -17.2737 12.4364 -20.4559 2.2525 18.3102 17.9972 -25.2329 0.0 0.0 0.0 -7.1250 0.0 0.0 -12.2973 55.955 3.3409 0.0000 -0.0000 0.0000 -4.7509 1.7848 13.6414 -20.5419 -31.2897 -5.8102 -25.1804 20.1765 -0.2864 0.0 0.0 0.0 7.1250 0.0 -0.0 1.0885 29.6625 0.4072
-9.4235 17.6463 -2.4227 2.3619 47.8795 8.0519 0.0000 0.0000 0.0000 -27.3587 1.0398 -15.1395 2.2425 9.3539 26.9088 0.9603 -2.4474 -17.8582 0.0985 -2.0239 -5.5717 0.0000 0.0000 0.0000 8.0420 9.5642 -28.8472 -5.4437 -13.8667 42.7061 -0.4278 -2.9754 -13.8054 -0.0013 0.2328 -0.6395 -6.2162 -1.9203 3.9351 1.9508 -2.7733 1.0827 5.6307 -1.3920 -0.6931 -6.6567 4.3295 -12.3854 2.9399 8.7775 41.8775 4.0971 3.2901 16.8514 0.0000 -0.0000 0.0000 0.184 -3.9569 -17.262 12.5842 -20.675 2.3044 18.4532 17.9737 -25.2487 0.0 0.0 0.0 -7.1250 0.0 0.0 -12.1568 55.9999 3.3153 0.0000 -0.0000 0.0000 -4.8535 1.8673 13.3108 -20.4960 -31.2352 -5.7863 -25.2385 20.3483 -0.2112 0.0 0.0 0.0 7.1250 0.0 -0.0 1.0436 29.7455 0.3884
-9.4170 17.6389 -2.4211 2.3889 48.0853 8.1215 0.0000 0.0000 0.0000 -27.3671 1.0881 -15.2314 2.2535 9.3753 26.9767 0.9702 -2.8393 -17.8782 0.0756 -1.7742 -4.8819 0.0000 0.0000 0.0000 8.1270 9.2907 -29.4648 -5.6242 -14.0540 43.4542 -0.4252 -3.6934 -14.2318 -0.0017 0.2627 -0.7219 -6.1542 -1.8977 3.9422 2.0113 -2.7389 1.1372 5.6567 -1.3778 -0.6455 -6.7651 4.4621 -12.1378 3.0656 8.9711 42.0052 4.1958 3.3766 16.8282 -0.0000 -0.0000 0.0000 0.1892 -3.819 -17.6757 12.8708 -21.0976 2.4066 18.4948 17.4071 -25.4435 0.0 0.0 0.0 -7.1250 0.0 0.0 -12.2102 56.2028 3.3905 -0.0000 -0.0000 0.0000 -5.0313 2.0345 13.1725 -20.4266 -31.1529 -5.7504 -25.2284 20.4732 -0.0627 0.0 0.0 0.0 7.1250 0.0 -0.0 1.0531 29.9097 0.3878
-9.4097 17.6322 -2.4206 2.5940 48.3081 8.3300 0.0000 0.0000 0.0000 -27.5065 1.0865 -15.2914 2.2586 9.3852 27.0079 0.9717 -2.9655 -17.8702 0.0782 -1.8034 -4.9625 0.0000 0.0000 0.0000 8.0792 9.0141 -30.0598 -5.7889 -14.2206 44.1285 -0.4259 -4.3119 -14.6705 -0.0015 0.2489 -0.6840 -6.1847 -1.9078 3.9816 2.0230 -2.7544 1.1808 5.6873 -1.3877 -0.6180 -6.8780 4.5838 -11.9117 3.2080 9.1421 42.1371 4.2999 3.4538 16.8120 -0.0000 0.0000 0.0000 0.1533 -3.8248 -17.5822 12.9896 -21.272 2.4495 18.7065 17.2886 -25.3035 0.0 0.0 0.0 -7.1250 0.0 0.0 -11.9208 56.1065 3.2806 -0.0000 0.0000 0.0000 -5.1607 2.1489 13.0779 -20.2882 -30.988 -5.679 -25.294 20.6374 0.1023 0.0 0.0 0.0 7.1250 0.0 -0.0 1.0033 30.0922 0.3651
-9.4012 17.6289 -2.4235 2.7002 48.5260 8.5281 0.0000 0.0000 0.0000 -27.5924 0.9888 -15.3851 2.2579 9.3838 27.0035 0.9717 -2.9995 -17.8635 0.0803 -1.8282 -5.0311 0.0000 0.0000 0.0000 8.1124 8.7933 -30.7166 -5.9347 -14.3648 44.7192 -0.4170 -4.9555 -15.0292 -0.0058 0.4909 -1.3489 -6.1016 -1.9088 3.9908 2.0466 -2.7516 1.2201 5.6641 -1.3883 -0.5858 -6.9333 4.7051 -11.6437 3.2610 9.3034 42.1024 4.3376 3.5321 16.7040 -0.0000 0.0000 0.0000 0.0743 -3.9211 -17.3994 13.0623 -21.3784 2.476 18.7833 17.3365 -25.1128 0.0 0.0 0.0 -7.1250 0.0 0.0 -11.7481 55.9314 3.182 -0.0000 0.0000 0.0000 -5.2551 2.2125 12.8449 -20.1274 -30.7955 -5.5964 -25.2803 20.7184 -0.129 0.0 0.0 0.0 7.1250 0.0 -0.0 1.0115 29.8364 0.3742
-9.3891 17.6258 -2.4251 2.9954 48.7332 8.8420 0.0000 0.0000 0.0000 -27.8243 0.8708 -15.3812 2.2493 9.3671 26.9506 0.9670 -3.1110 -17.8001 0.0764 -1.7835 -4.9078 0.0000 0.0000 0.0000 7.9960 8.5741 -31.3018 -6.0576 -14.4839 45.2124 -0.4290 -5.1474 -15.3356 -0.0023 0.3100 -0.8518 -6.1352 -1.9583 4.0104 2.0565 -2.8186 1.2662 5.6952 -1.4248 -0.5371 -7.1096 4.8170 -11.4881 3.2836 9.5024 42.0538 4.3926 3.6000 16.6107 0.0000 -0.0000 0.0000 0.0324 -3.8129 -17.4683 13.3109 -21.741 2.5673 18.7828 16.9745 -25.0674 0.0 0.0 0.0 -7.1250 0.0 0.0 -11.7268 55.8858 3.163 0.0000 -0.0000 0.0000 -5.4174 2.176 12.6216 -19.9304 -30.5583 -5.4959 -25.0342 21.0395 -0.2674 0.0 0.0 0.0 7.1250 0.0 -0.0 1.2036 29.6835 0.4497
-9.3771 17.6230 -2.4170 3.3297 48.9249 9.1164 0.0000 0.0000 0.0000 -28.0470 0.7822 -15.2587 2.2359 9.3411 26.8682 0.9681 -3.2414 -17.7890 0.0657 -1.6540 -4.5505 0.0000 0.0000 0.0000 7.8909 8.3527 -31.7353 -6.1512 -14.5733 45.5855 -0.4712 -4.8617 -15.6633 -0.0044 -0.4288 1.1782 -6.3170 -1.9906 4.0371 2.0823 -2.8680 1.3424 5.8260 -1.4551 -0.4551 -7.2661 4.8700 -11.3785 3.3073 9.6216 42.0977 4.4432 3.6319 16.5877 0.0000 -0.0000 0.0000 0.0645 -3.6442 -17.7311 13.5726 -22.1204 2.665 18.6485 16.3702 -24.7561 0.0 0.0 0.0 -7.1250 0.0 0.0 -11.7171 55.5467 3.0635 0.0000 -0.0000 0.0000 -5.6171 2.1592 12.4925 -19.7321 -30.3182 -5.3954 -25.0144 21.4528 -0.0208 0.0 0.0 0.0 7.1250 0.0 -0.0 1.2223 29.9557 0.4488
-9.3671 17.6233 -2.4038 3.4438 49.1082 9.2607 0.0000 0.0000 0.0000 -28.0959 0.8946 -15.2537 2.2166 9.3033 26.7489 0.9599 -3.5108 -17.6702 0.0613 -1.5975 -4.3947 0.0000 0.0000 0.0000 8.0063 8.1533 -32.2045 -6.2209 -14.6391 45.8621 -0.4884 -4.7801 -15.8196 -0.0082 -0.5846 1.6065 -6.3743 -1.9818 4.0004 2.1055 -2.8541 1.4080 5.8792 -1.4535 -0.3644 -7.3152 4.8954 -11.1693 3.3780 9.6281 42.0751 4.4684 3.6465 16.5123 0.0000 -0.0000 0.0000 0.1012 -3.6513 -17.6603 13.6508 -22.2333 2.6946 18.8101 16.4672 -24.6426 0.0 0.0 0.0 -7.1250 0.0 0.0 -11.4969 55.4653 2.9819 0.0000 -0.0000 0.0000 -5.7248 2.2064 12.2761 -19.5515 -30.0982 -5.3046 -24.9105 21.6992 0.1517 0.0 0.0 0.0 7.1250 0.0 -0.0 1.3067 30.1458 0.4739
-9.3524 17.6301 -2.3962 3.2401 49.2681 9.2070 0.0000 0.0000 0.0000 -27.9491 1.0133 -15.3141 2.2022 9.2751 26.6597 0.9592 -3.6866 -17.6388 0.0720 -1.7308 -4.7622 0.0000 0.0000 0.0000 8.3152 8.0591 -32.6978 -6.2640 -14.6794 46.0322 -0.4882 -4.8372 -15.8592 -0.0040 -0.4075 1.1196 -6.1002 -1.9479 3.9316 2.1365 -2.7928 1.4580 5.7499 -1.4255 -0.2955 -7.2865 4.9067 -10.9716 3.3571 9.6297 42.0372 4.4401 3.6583 16.4461 0.0000 -0.0000 0.0000 0.1475 -3.7323 -17.6886 13.6961 -22.2986 2.7117 18.7479 16.5827 -24.98 0.0 0.0 0.0 -7.1250 0.0 0.0 -11.7211 55.7912 3.1344 0.0000 -0.0000 0.0000 -5.7762 2.2399 11.9577 -19.3229 -29.8179 -5.1904 -24.8424 21.5515 -0.0983 0.0 0.0 0.0 7.1250 0.0 -0.0 1.3566 29.8701 0.5009
